<svg xmlns="http://www.w3.org/2000/svg" viewBox="0 0 200 200" fill="none">
  <!-- 代码窗口 -->
  <rect x="20" y="30" width="160" height="140" rx="10" fill="#1a1a1a" opacity="0.05"/>
  <rect x="20" y="30" width="160" height="25" rx="10" fill="#1a1a1a" opacity="0.08"/>
  <!-- 窗口按钮 -->
  <circle cx="38" cy="42" r="4" fill="#ff5f57" opacity="0.5"/>
  <circle cx="52" cy="42" r="4" fill="#febc2e" opacity="0.5"/>
  <circle cx="66" cy="42" r="4" fill="#28c840" opacity="0.5"/>
  <!-- 代码行 -->
  <rect x="35" y="68" width="40" height="4" rx="2" fill="#d4380d" opacity="0.3"/>
  <rect x="80" y="68" width="60" height="4" rx="2" fill="#1890ff" opacity="0.2"/>
  <rect x="45" y="80" width="80" height="4" rx="2" fill="#1a1a1a" opacity="0.1"/>
  <rect x="45" y="92" width="50" height="4" rx="2" fill="#52c41a" opacity="0.2"/>
  <rect x="100" y="92" width="30" height="4" rx="2" fill="#1a1a1a" opacity="0.1"/>
  <rect x="45" y="104" width="70" height="4" rx="2" fill="#1890ff" opacity="0.15"/>
  <rect x="35" y="116" width="55" height="4" rx="2" fill="#d4380d" opacity="0.2"/>
  <rect x="95" y="116" width="40" height="4" rx="2" fill="#1a1a1a" opacity="0.1"/>
  <rect x="35" y="128" width="30" height="4" rx="2" fill="#722ed1" opacity="0.2"/>
  <rect x="70" y="128" width="65" height="4" rx="2" fill="#1a1a1a" opacity="0.08"/>
  <rect x="35" y="140" width="90" height="4" rx="2" fill="#52c41a" opacity="0.15"/>
</svg>
