<svg xmlns="http://www.w3.org/2000/svg" viewBox="0 0 400 300" fill="none">
  <!-- 桌子 -->
  <rect x="80" y="180" width="240" height="8" rx="4" fill="#e8e8e8"/>
  <rect x="100" y="188" width="8" height="60" fill="#d9d9d9"/>
  <rect x="292" y="188" width="8" height="60" fill="#d9d9d9"/>
  <!-- 左边人物(面试官) -->
  <circle cx="140" cy="120" r="25" fill="#d4380d" opacity="0.15"/>
  <circle cx="140" cy="120" r="18" fill="#d4380d" opacity="0.3"/>
  <rect x="125" y="148" width="30" height="35" rx="8" fill="#d4380d" opacity="0.2"/>
  <!-- 右边人物(候选人) -->
  <circle cx="260" cy="120" r="25" fill="#1890ff" opacity="0.15"/>
  <circle cx="260" cy="120" r="18" fill="#1890ff" opacity="0.3"/>
  <rect x="245" y="148" width="30" height="35" rx="8" fill="#1890ff" opacity="0.2"/>
  <!-- 对话气泡 -->
  <rect x="165" y="80" width="70" height="30" rx="15" fill="#d4380d" opacity="0.1"/>
  <rect x="170" y="88" width="20" height="4" rx="2" fill="#d4380d" opacity="0.3"/>
  <rect x="195" y="88" width="30" height="4" rx="2" fill="#d4380d" opacity="0.3"/>
  <rect x="170" y="96" width="40" height="4" rx="2" fill="#d4380d" opacity="0.2"/>
  <!-- 文件 -->
  <rect x="180" y="165" width="40" height="15" rx="2" fill="#f0f0f0" stroke="#e8e8e8" stroke-width="1"/>
  <rect x="185" y="169" width="20" height="2" rx="1" fill="#d9d9d9"/>
  <rect x="185" y="173" width="30" height="2" rx="1" fill="#d9d9d9"/>
</svg>
